# xmcd
#
# Track frame offsets:
# 150
# 18048
# 35970
# 52846
# 67160
# 84102
# 102908
# 122376
# 134693
# 148716
# 165568
# 182866
# 198811
# 217212
# 228314
# 246032
# 263580
# 281106
# 301377
# 320938
#
# Disc length: 4497 seconds
#
#
# Revision: 0
# Processed by: cddbd v1.5.1PL2 Copyright (c) Steve Scherf et al.
# Submitted via: FreeRIP 2.945 
#
DISCID=25118f14
DTITLE=La oreja de van gogh - La oreja de van gogh
DYEAR=1900
DGENRE=
TTITLE0=Puedes contar conmigo
TTITLE1=Rosas
TTITLE2=Deseos de cosas imposibles
TTITLE3=Un mundom mejor
TTITLE4=20 de enro
TTITLE5=Porque te vas
TTITLE6=Sin miedo a nada
TTITLE7=Cuidate
TTITLE8=Cuentas al odio
TTITLE9=Paris
TTITLE10=Soledad
TTITLE11=Dile al sol
TTITLE12=La playa
TTITLE13=Pop
TTITLE14=Mariposa
TTITLE15=Tu pelo
TTITLE16=Tantas cosas que contar
TTITLE17=Desde el puerto
TTITLE18=Dos cristales
TTITLE19=La estrella y la luna
EXTD=
EXTT0=
EXTT1=
EXTT2=
EXTT3=
EXTT4=
EXTT5=
EXTT6=
EXTT7=
EXTT8=
EXTT9=
EXTT10=
EXTT11=
EXTT12=
EXTT13=
EXTT14=
EXTT15=
EXTT16=
EXTT17=
EXTT18=
EXTT19=
PLAYORDER=
